<svg width="162" height="42" viewBox="0 0 162 42" fill="none" xmlns="http://www.w3.org/2000/svg">
<path fill-rule="evenodd" clip-rule="evenodd" d="M21.9961 29.1516V26.7268C19.6163 22.9059 15.9815 19.9431 11.666 18.4109C12.2825 23.9118 16.5494 28.3131 21.9961 29.1516ZM21.9961 32.9588C14.144 32.0414 8.02088 25.485 7.81065 17.4609C6.87004 17.3262 5.90836 17.2564 4.93034 17.2564C4.5363 17.2564 4.14493 17.2678 3.75651 17.2901C3.78085 27.7048 11.7849 36.2506 21.9961 37.1726V32.9588ZM25.7804 32.9588V37.1829C36.048 36.3165 44.1138 27.745 44.1382 17.2901C43.7498 17.2678 43.3584 17.2564 42.9644 17.2564C41.9452 17.2564 40.9437 17.3322 39.9654 17.4783C39.7468 25.4945 33.6268 32.042 25.7804 32.9588ZM25.7804 29.1516V26.919C28.1348 23.042 31.7721 20.0258 36.1054 18.4552C35.4711 23.9354 31.2125 28.3154 25.7804 29.1516ZM25.7804 20.8092V14.4496C29.0554 14.0687 32.03 12.7069 34.4007 10.6666C35.1224 11.8484 35.6493 13.1614 35.9369 14.5614C32.0265 15.7628 28.5456 17.9406 25.7804 20.8092ZM21.9961 14.4476V20.6874C19.2238 17.8519 15.7465 15.7048 11.8466 14.5275C12.1364 13.1365 12.6627 11.8318 13.3815 10.6572C15.75 12.6992 18.7226 14.0634 21.9961 14.4476ZM25.7804 10.6427C28.1239 10.2836 30.2494 9.26494 31.9601 7.78284C30.25 6.29857 28.1244 5.27784 25.7804 4.91698V10.6427ZM21.9961 4.91698V10.6401C19.6553 10.2781 17.5328 9.25805 15.8248 7.77555C17.5334 6.29522 19.6559 5.27725 21.9961 4.91698ZM8.14776 13.7261C9.67696 6.45783 16.1433 1 23.8882 1C27.9083 1 31.5838 2.47043 34.4033 4.90124L34.4062 4.89649C35.3936 5.74697 36.2761 6.71517 37.0317 7.7792L37.0275 7.78512C38.2744 9.54239 39.1754 11.5608 39.632 13.7419C40.721 13.59 41.8335 13.5114 42.9644 13.5114C43.2416 13.5114 43.5178 13.5161 43.7927 13.5255L43.79 13.5114C45.1133 13.5563 46.4092 13.7088 47.6692 13.9603C47.8179 15.0332 47.8947 16.1289 47.8947 17.2424V17.2494V17.2564C47.8947 17.4591 47.8922 17.6612 47.8871 17.8626H47.8868C47.5569 30.6969 37.0177 41 24.0648 41C24.0256 41 23.9865 40.9999 23.9474 40.9997C23.9083 40.9999 23.8691 41 23.83 41C10.877 41 0.337795 30.6969 0.00795316 17.8626H0.00760925C0.00255086 17.6612 0 17.4591 0 17.2564V17.2494V17.2424C0 16.1289 0.0768504 15.0332 0.22555 13.9603C1.48555 13.7088 2.78143 13.5563 4.10469 13.5114L4.10203 13.5255C4.37697 13.5161 4.6531 13.5114 4.93034 13.5114C6.0215 13.5114 7.09552 13.5845 8.14776 13.7261Z" fill="#101828"/>
<path d="M59.656 32V9.6H69.832C72.264 9.6 74.408 10.0693 76.264 11.008C78.12 11.9253 79.5707 13.216 80.616 14.88C81.6613 16.544 82.184 18.5173 82.184 20.8C82.184 23.0613 81.6613 25.0347 80.616 26.72C79.5707 28.384 78.12 29.6853 76.264 30.624C74.408 31.5413 72.264 32 69.832 32H59.656ZM64.84 27.744H69.576C71.0693 27.744 72.36 27.4667 73.448 26.912C74.5573 26.336 75.4107 25.5253 76.008 24.48C76.6267 23.4347 76.936 22.208 76.936 20.8C76.936 19.3707 76.6267 18.144 76.008 17.12C75.4107 16.0747 74.5573 15.2747 73.448 14.72C72.36 14.144 71.0693 13.856 69.576 13.856H64.84V27.744ZM85.7415 32V14.784H90.7335V32H85.7415ZM88.2375 12.384C87.3202 12.384 86.5735 12.1173 85.9975 11.584C85.4215 11.0507 85.1335 10.3893 85.1335 9.6C85.1335 8.81067 85.4215 8.14933 85.9975 7.616C86.5735 7.08267 87.3202 6.816 88.2375 6.816C89.1548 6.816 89.9015 7.072 90.4775 7.584C91.0535 8.07467 91.3415 8.71467 91.3415 9.504C91.3415 10.336 91.0535 11.0293 90.4775 11.584C89.9228 12.1173 89.1762 12.384 88.2375 12.384ZM102.759 32.256C101.137 32.256 99.6758 31.8933 98.3745 31.168C97.0732 30.4213 96.0385 29.3867 95.2705 28.064C94.5238 26.7413 94.1505 25.184 94.1505 23.392C94.1505 21.5787 94.5238 20.0107 95.2705 18.688C96.0385 17.3653 97.0732 16.3413 98.3745 15.616C99.6758 14.8907 101.137 14.528 102.759 14.528C104.209 14.528 105.479 14.848 106.567 15.488C107.655 16.128 108.497 17.0987 109.095 18.4C109.692 19.7013 109.991 21.3653 109.991 23.392C109.991 25.3973 109.703 27.0613 109.127 28.384C108.551 29.6853 107.719 30.656 106.631 31.296C105.564 31.936 104.273 32.256 102.759 32.256ZM103.623 28.16C104.433 28.16 105.169 27.968 105.831 27.584C106.492 27.2 107.015 26.656 107.399 25.952C107.804 25.2267 108.007 24.3733 108.007 23.392C108.007 22.3893 107.804 21.536 107.399 20.832C107.015 20.128 106.492 19.584 105.831 19.2C105.169 18.816 104.433 18.624 103.623 18.624C102.791 18.624 102.044 18.816 101.383 19.2C100.721 19.584 100.188 20.128 99.7825 20.832C99.3985 21.536 99.2065 22.3893 99.2065 23.392C99.2065 24.3733 99.3985 25.2267 99.7825 25.952C100.188 26.656 100.721 27.2 101.383 27.584C102.044 27.968 102.791 28.16 103.623 28.16ZM108.135 32V28.48L108.231 23.36L107.911 18.272V8.256H112.903V32H108.135ZM125.715 32.256C123.88 32.256 122.248 31.872 120.819 31.104C119.411 30.336 118.291 29.2907 117.459 27.968C116.648 26.624 116.243 25.0987 116.243 23.392C116.243 21.664 116.648 20.1387 117.459 18.816C118.291 17.472 119.411 16.4267 120.819 15.68C122.248 14.912 123.88 14.528 125.715 14.528C127.528 14.528 129.149 14.912 130.579 15.68C132.008 16.4267 133.128 17.4613 133.939 18.784C134.749 20.1067 135.155 21.6427 135.155 23.392C135.155 25.0987 134.749 26.624 133.939 27.968C133.128 29.2907 132.008 30.336 130.579 31.104C129.149 31.872 127.528 32.256 125.715 32.256ZM125.715 28.16C126.547 28.16 127.293 27.968 127.955 27.584C128.616 27.2 129.139 26.656 129.523 25.952C129.907 25.2267 130.099 24.3733 130.099 23.392C130.099 22.3893 129.907 21.536 129.523 20.832C129.139 20.128 128.616 19.584 127.955 19.2C127.293 18.816 126.547 18.624 125.715 18.624C124.883 18.624 124.136 18.816 123.475 19.2C122.813 19.584 122.28 20.128 121.875 20.832C121.491 21.536 121.299 22.3893 121.299 23.392C121.299 24.3733 121.491 25.2267 121.875 25.952C122.28 26.656 122.813 27.2 123.475 27.584C124.136 27.968 124.883 28.16 125.715 28.16Z" fill="black"/>
</svg>
